<?xml version="1.0" encoding="utf-8"?>
<!-- Uploaded to: SVG Repo, www.svgrepo.com, Generator: SVG Repo Mixer Tools -->
<svg fill="#000000" width="800px" height="800px" viewBox="0 0 32 32" version="1.1" xmlns="http://www.w3.org/2000/svg">
<title>dripping-blade</title>
<path d="M31.442 17.433c-2.559-2.847-5.173-5.386-7.762-7.653-4.081-3.573-8.081-6.422-11.698-8.71h-4.593c3.793 2.296 8.601 5.783 11.853 9.523-5.493-1.345-12.574-4.128-18.156-6.53v3.822c0.011 0.005 0.021 0.009 0.032 0.014l-0.292-0.092c10.857 4.756 22.287 8.264 30.612 9.628l-0.020-0.006c0.008 0.001 0.016 0.003 0.023 0.004zM3.72 18.070c-0.186 0.697-1.189 2.528-1.189 3.357 0 1.124 0.902 2.038 2.026 2.010s2.025-1.007 2.026-2.13c0-0.834-1.042-2.605-1.233-3.294-0.757-2.736 0.75-6.685 2.636-6.984-2.020-0.774-4.047-1.596-6.058-2.46 1.399 1.438 2.485 6.91 1.792 9.501zM15.487 25.679c-0.202 0.738-1.282 2.706-1.282 3.591 0 1.193 0.929 2.115 2.121 2.105s2.166-0.946 2.166-2.139c0-0.88-0.993-2.854-1.238-3.571-0.921-2.702-0.248-8.971 1.326-8.809 1.374 0.141 1.581 3.065 1.017 4.988-0.13 0.443-0.751 1.595-0.751 2.128 0 0.719 0.563 1.278 1.282 1.272s1.282-0.574 1.282-1.292c0-0.53-0.56-1.684-0.707-2.117-0.579-1.699 0.42-5.581 1.781-6.048-3.29-0.887-6.786-1.977-10.357-3.236 3.48 2.397 4.17 10.179 3.361 13.127zM29.617 17.454c-1.978-0.38-4.1-0.868-6.324-1.451 1.552 1.223 2.18 5.070 1.33 8.253-0.232 0.866-1.478 3.143-1.478 4.173 0 1.397 1.122 2.534 2.518 2.499s2.518-1.251 2.518-2.648c0-1.037-1.296-3.238-1.533-4.095-0.939-3.395 0.83-6.273 2.969-6.731z"></path>
</svg>